<svg width="208" height="68" viewBox="0 0 208 68" fill="none" xmlns="http://www.w3.org/2000/svg">
<path d="M101.805 67.6884C100.695 67.4794 100.007 67.2565 98.9333 66.7569C98.5213 66.5653 98.1654 66.4085 98.1424 66.4085C98.1194 66.4085 97.8011 66.2661 97.4351 66.0921C96.6162 65.7027 95.148 64.6175 94.5525 63.9614C93.1391 62.4042 91.9837 60.9844 91.3063 59.9726C90.5191 58.7966 90.0425 58.3341 88.413 57.1647C87.7033 56.6553 86.8985 56.0447 86.6248 55.8077C86.08 55.3362 85.9417 55.2654 84.9937 54.9717C84.4723 54.8102 83.9225 54.7593 82.0374 54.6979C78.5764 54.5852 77.0053 54.3534 75.0408 53.6654C73.3327 53.0672 69.6156 51.8279 68.9311 51.6283C67.9449 51.3408 66.4707 50.8612 64.4966 50.1856C63.0148 49.6784 62.4397 49.504 60.8664 49.0843C60.577 49.0071 60.1336 48.8574 59.8809 48.7517C59.6283 48.6459 58.8451 48.3527 58.1405 48.1C56.4808 47.5048 54.3481 46.433 51.5131 44.7695C50.0999 43.9402 49.0347 43.3945 48.5325 43.2426C48.047 43.0956 45.5583 41.7972 44.8882 41.3412C44.6994 41.2128 44.5079 41.1077 44.4625 41.1077C44.4171 41.1077 44.1869 40.974 43.9509 40.8105C43.3683 40.407 42.5308 40.0753 41.5852 39.8737C41.1516 39.7812 40.5973 39.6443 40.3534 39.5694C40.1095 39.4946 39.4443 39.3155 38.8752 39.1715C38.3061 39.0275 37.7075 38.8472 37.5449 38.771C36.7175 38.3828 36.4448 38.334 36.0986 38.5121C35.9185 38.6048 35.3823 39.087 34.9072 39.5836C33.6624 40.8847 32.3289 41.5239 30.5975 41.6497C30.1369 41.6831 29.4189 41.7611 29.002 41.8229C28.1929 41.9429 27.3207 41.8498 26.3109 41.5355C25.3559 41.2383 21.3372 39.1373 19.9216 38.1952C19.154 37.6843 18.149 37.0418 17.6883 36.7673C17.2276 36.4929 16.4959 36.0574 16.0623 35.7995C15.6287 35.5416 15.0523 35.1551 14.7813 34.9405C13.4868 33.9155 12.8042 33.3381 11.7673 32.3907C11.1486 31.8255 10.4651 31.2415 10.2483 31.093C8.92664 30.1876 7.54093 30.1904 5.73667 31.1025C4.44148 31.7569 3.46765 32.335 3.24743 32.58C3.15165 32.6865 3.01068 32.7737 2.93417 32.7737C2.85766 32.7737 2.6497 32.8853 2.47206 33.0218C2.29441 33.1582 2.07785 33.2698 1.99081 33.2698C1.90377 33.2698 1.79413 33.3389 1.74717 33.4234C1.70021 33.508 1.57605 33.5718 1.47128 33.5654C1.3665 33.5591 1.11448 33.5536 0.911235 33.5535C0.456174 33.5533 0.439448 33.424 0.796736 32.6683C1.13361 31.9557 3.06865 30.0194 4.33833 29.1244C4.4952 29.0138 5.078 28.7432 5.56743 28.5537C6.18098 28.3161 8.28419 28.3146 9.31209 28.5505C10.0216 28.7137 10.2656 28.8014 11.1352 29.2062C11.3519 29.3071 11.6402 29.4385 11.7757 29.4983C12.0916 29.6376 12.3371 29.786 12.7618 30.0945C13.163 30.3859 13.535 30.5906 13.6635 30.5906C13.8908 30.5906 14.7854 29.5862 15.2472 28.8125C15.5266 28.3443 15.7911 27.9464 15.8349 27.9282C15.8787 27.91 15.9145 27.8474 15.9145 27.7892C15.9145 27.5716 18.0523 25.2969 18.5992 24.9327C18.802 24.7976 18.9683 24.6536 18.9687 24.6126C18.9691 24.5717 19.0167 24.5382 19.0745 24.5382C19.1323 24.5382 19.3208 24.4312 19.4933 24.3006C19.843 24.0357 21.1668 23.4476 21.4187 23.4453C21.5078 23.4445 21.7582 23.3794 21.975 23.3008C22.1918 23.2222 22.5318 23.1559 22.7307 23.1535C23.1886 23.1482 23.6371 22.8918 23.7669 22.5616C23.8222 22.4209 23.9501 21.7923 24.051 21.1647C24.2067 20.1964 24.2361 19.4155 24.2447 16.0054C24.2514 13.371 24.2949 11.782 24.3708 11.3917C24.4346 11.0643 24.487 10.2242 24.4873 9.52482C24.4875 8.82547 24.5337 8.16689 24.5899 8.06135C24.6837 7.88483 24.8093 7.86944 26.156 7.86944C27.5073 7.86944 28.1142 7.93862 29.6121 8.26353C29.856 8.31645 30.5218 8.38874 31.0917 8.42421L32.1279 8.48868L32.8498 7.88139C33.2469 7.54738 33.6342 7.2741 33.7106 7.2741C33.787 7.2741 33.8495 7.2404 33.8495 7.19914C33.8495 7.12196 34.3271 6.93607 34.9335 6.7773C35.1232 6.72764 35.4558 6.60112 35.6726 6.49619C36.0801 6.29892 36.904 5.933 37.2493 5.79594C37.3577 5.75289 37.8676 5.51159 38.3825 5.25968C39.884 4.52508 40.8735 4.07803 41.191 3.99088C41.3536 3.94626 41.6862 3.85944 41.9301 3.79797C42.174 3.73654 42.5066 3.64005 42.6692 3.58364C42.8318 3.52726 43.0978 3.46081 43.2604 3.43605C43.423 3.41127 43.6448 3.35026 43.7532 3.30033C43.8616 3.25046 44.1498 3.16167 44.3937 3.10301C44.6376 3.04431 45.182 2.91417 45.6036 2.81372L46.37 2.63107L46.7446 2.94616C46.9506 3.11945 47.2964 3.43859 47.5129 3.65536C47.7295 3.87211 48.1789 4.29503 48.5115 4.59516C48.8442 4.8953 49.2825 5.35884 49.4855 5.62524C49.6885 5.89164 49.9762 6.24883 50.1247 6.41899C50.3864 6.71885 51.0358 7.48761 51.4408 7.97703C51.5498 8.10882 51.859 8.50687 52.1279 8.86157C52.3968 9.21628 52.7655 9.66981 52.9471 9.86942C53.1288 10.069 53.3739 10.3624 53.4918 10.5213C53.6096 10.6802 53.8169 10.9274 53.9524 11.0706C54.257 11.3926 54.8659 12.1237 54.9538 12.2731C54.9896 12.334 55.5882 12.9674 56.2841 13.6807C56.98 14.3939 57.8224 15.2646 58.1561 15.6154C58.4899 15.9663 59.0442 16.5247 59.3879 16.8564C60.3453 17.7802 61.4802 19.0654 61.9219 19.726C62.1408 20.0534 62.4216 20.4439 62.546 20.5936C62.6704 20.7433 62.9273 21.0748 63.117 21.3303C63.3067 21.5857 63.8388 22.1921 64.2995 22.6779C64.7602 23.1637 65.1537 23.6135 65.1739 23.6776C65.1941 23.7416 65.3382 24.0762 65.4942 24.421C65.7015 24.8796 65.7777 25.2015 65.7777 25.6191C65.7777 25.9675 65.8737 26.4743 66.0241 26.9194C66.1737 27.3623 66.2704 27.8715 66.2704 28.216C66.2704 28.5999 66.3133 28.7999 66.4031 28.8346C66.476 28.8627 66.7975 28.7784 67.1175 28.6472C67.4375 28.516 67.7743 28.4084 67.8659 28.4081C67.9576 28.4079 68.0569 28.3681 68.0866 28.3197C68.1163 28.2713 68.3017 28.2013 68.4987 28.1641C68.6957 28.1269 68.929 28.0588 69.0171 28.0128C69.4719 27.7756 71.2575 27.2501 72.214 27.072L72.8854 26.9469L73.7414 27.8247C74.2122 28.3075 74.6654 28.7031 74.7486 28.7039C74.8957 28.705 75.4613 28.0946 75.7025 27.6739C75.7683 27.5591 75.8238 27.3673 75.8257 27.2477C75.8277 27.1282 75.8727 27.0033 75.9258 26.9702C76.023 26.9097 76.5016 25.9228 76.7925 25.1831C76.8784 24.9648 77.0601 24.6076 77.1964 24.3893C77.4929 23.9143 78.194 22.593 78.9065 21.1663C79.5438 19.8903 80.2329 19.1615 81.3079 18.6267C81.7048 18.4292 82.0699 18.2163 82.1191 18.1535C82.1684 18.0907 82.2648 17.7985 82.3334 17.504C82.402 17.2096 82.5184 16.8524 82.5921 16.7103C82.6657 16.5681 82.7263 16.3816 82.7266 16.2959C82.7278 16.0267 83.166 14.7651 83.4218 14.2952C83.4734 14.2005 83.5156 14.0556 83.5156 13.9735C83.5156 13.8912 83.7095 13.433 83.9464 12.9551C84.904 11.0238 85.4865 9.77969 85.4865 9.66554C85.4865 9.53073 85.9364 8.60027 86.259 8.06784C86.3747 7.87684 86.516 7.63128 86.5729 7.52214C86.6298 7.413 86.8448 7.05723 87.0507 6.73154C87.4821 6.04896 88.3137 5.46646 89.0184 5.35321C89.547 5.26827 90.1042 4.98885 90.4762 4.62216C90.8146 4.28854 91.552 3.70222 91.6331 3.70222C91.6649 3.70222 92.0354 3.46781 92.4565 3.18132C92.8776 2.89483 93.3108 2.61446 93.4192 2.55828C93.6431 2.44229 94.0452 1.6784 94.0539 1.35252C94.0596 1.14319 94.4068 0.829043 94.7848 0.691241C95.2102 0.536145 96.1227 1.03506 97.3676 2.10336C97.5339 2.24604 97.8858 2.54136 98.1497 2.75965C98.4135 2.97793 98.6988 3.22672 98.7836 3.31252C98.8683 3.39831 99.0929 3.57578 99.2826 3.70687C99.4723 3.83795 99.7605 4.08041 99.9231 4.24569C100.224 4.5518 101.832 6.00575 102.869 6.90959C102.983 7.00924 103.32 7.32524 103.619 7.61181C103.917 7.89838 104.607 8.42649 105.152 8.78539C106.149 9.44124 107.099 10.1708 107.773 10.7991C107.973 10.9851 108.378 11.3352 108.672 11.5771C109.19 12.0012 109.628 12.3945 110.101 12.858C110.224 12.9792 110.388 13.2793 110.464 13.5249C110.79 14.578 111.425 16.3537 111.594 16.6864C111.695 16.8848 111.975 17.315 112.218 17.6425C112.856 18.5041 118.24 23.8802 119.005 24.4202C119.115 24.4976 119.337 24.6909 119.498 24.8498C119.894 25.2389 120.522 25.6296 120.752 25.6296C120.926 25.6296 121.145 25.3808 121.415 24.8752C121.477 24.7604 121.559 24.4479 121.598 24.1807C121.727 23.3008 122.19 22.7415 122.971 22.5205C123.742 22.3023 125.128 22.0577 125.593 22.0577C126.333 22.0577 127.457 22.4256 128.353 22.9619C128.434 23.0105 128.59 23.0956 128.698 23.1508C128.806 23.206 129.028 23.3404 129.191 23.4494C129.353 23.5583 129.564 23.6745 129.659 23.7075C129.754 23.7405 129.831 23.8009 129.831 23.8417C129.831 23.9466 130.628 24.2405 130.913 24.2405C131.222 24.2405 132.214 24.0616 132.837 23.8934C133.108 23.8202 133.529 23.732 133.773 23.6972C134.017 23.6624 134.305 23.598 134.413 23.5542C134.522 23.5103 134.877 23.3927 135.202 23.2927C135.527 23.1928 135.881 23.0526 135.987 22.9812C136.094 22.9098 136.241 22.8514 136.312 22.8514C136.384 22.8514 136.762 22.701 137.153 22.5172C137.543 22.3334 138.106 22.0797 138.404 21.9535C138.703 21.8274 139.034 21.6652 139.141 21.5933C139.248 21.5213 139.434 21.4624 139.554 21.4624C139.674 21.4624 139.8 21.4177 139.833 21.3631C139.867 21.3085 139.969 21.2637 140.061 21.2633C140.153 21.263 140.338 21.2051 140.474 21.1347C140.609 21.0642 141.031 20.9237 141.41 20.8223C142.215 20.6073 143.571 20.0026 144.859 19.2843C146.103 18.5907 146.353 18.4353 146.879 18.0293C147.552 17.5098 148.185 16.8438 148.801 16.0053C149.062 15.6506 149.417 15.2041 149.59 15.0131C149.764 14.8221 150.136 14.2864 150.417 13.8225C150.698 13.3587 151.148 12.6666 151.416 12.2846C151.684 11.9026 152.193 11.1659 152.548 10.6475C152.902 10.1291 153.504 9.25844 153.886 8.71274C154.267 8.16704 154.769 7.43034 155.002 7.07563C155.235 6.72093 155.549 6.29856 155.7 6.13706C155.981 5.83581 156.635 4.85622 156.635 4.73597C156.635 4.69901 156.814 4.40487 157.033 4.08224C157.401 3.53942 157.782 2.86805 158.388 1.69797C158.689 1.11521 158.922 0.899267 159.249 0.899267C159.526 0.899267 160.27 1.20042 160.429 1.3771C160.567 1.53078 161.741 2.31312 161.833 2.31312C161.985 2.31312 162.454 2.82674 162.644 3.20135C162.884 3.67491 163.032 4.24442 163.141 5.1101C163.187 5.47517 163.272 5.8629 163.329 5.97173C163.387 6.08056 163.434 6.273 163.434 6.39938C163.432 7.24735 164.587 8.73602 165.93 9.6176C168.68 11.4232 170.108 12.4293 170.463 12.8117C170.69 13.0554 171.003 13.3905 171.16 13.5564C171.316 13.7223 171.703 14.2184 172.019 14.6589C172.335 15.0993 172.632 15.5057 172.679 15.562C172.726 15.6183 172.904 15.8595 173.076 16.0979C173.247 16.3363 173.709 16.8744 174.102 17.2935C174.495 17.7127 175.038 18.3199 175.308 18.6428C175.834 19.2697 176.57 20.0849 177.132 20.6619C177.322 20.8566 177.699 21.3059 177.969 21.6603C178.24 22.0147 178.761 22.612 179.126 22.9876C179.491 23.3632 179.931 23.8546 180.105 24.0795C180.278 24.3045 180.775 24.801 181.209 25.183C182.16 26.0206 183.871 27.7358 186.213 30.1996C188.87 32.9949 190.239 34.3766 190.779 34.81C191.05 35.0268 191.36 35.2866 191.469 35.3873C191.899 35.7843 192.577 35.8264 193.332 35.5029C193.5 35.4305 193.926 35.2936 194.279 35.1986C195.466 34.8782 196.724 34.4528 197.608 34.0722C199.021 33.4641 199.088 33.4639 200.069 34.0669C200.529 34.3498 200.977 34.6403 201.066 34.7124C201.511 35.0761 202.209 35.5669 203.098 36.1411C204.454 37.0164 205.534 37.8458 206.351 38.6396C207.073 39.3409 207.746 40.3249 207.632 40.5115C207.481 40.7577 205.739 40.2385 204.724 39.6447C204.184 39.3286 203.199 38.5797 202.424 37.8951C200.893 36.5442 199.613 35.9531 198.051 35.8748C197.286 35.8364 197.226 35.8484 196.987 36.0894C196.722 36.3558 196.501 36.4144 196.397 36.2455C196.282 36.0572 195.827 36.1476 194.882 36.5467C193.749 37.0254 193.43 37.1522 192.653 37.4334C192.328 37.5511 191.707 37.8455 191.273 38.0877C190.84 38.3299 189.975 38.7888 189.352 39.1075C188.728 39.4262 187.93 39.8718 187.578 40.0978C187.226 40.3237 186.627 40.6957 186.247 40.9243C185.868 41.153 184.87 41.7952 184.03 42.3514C183.19 42.9076 182.37 43.4362 182.207 43.526C182.045 43.6159 181.823 43.7438 181.714 43.8102C181.606 43.8767 181.296 44.0646 181.025 44.228C180.754 44.3913 180.222 44.7521 179.842 45.0297C179.463 45.3074 178.848 45.7104 178.476 45.9254C177.521 46.4778 177.058 46.7865 175.021 48.2279C174.691 48.4607 173.724 49.1304 172.87 49.7161C172.016 50.3018 171.107 50.9257 170.85 51.1026C170.592 51.2796 170.116 51.6602 169.791 51.9485C169.465 52.2369 169 52.6262 168.756 52.8137C168.512 53.0013 167.869 53.5359 167.327 54.0018C166.785 54.4678 166.009 55.0457 165.603 55.2862C165.196 55.5266 164.708 55.8228 164.519 55.9444C164.329 56.066 163.93 56.3203 163.632 56.5095C162.969 56.93 162.154 57.5985 161.171 58.5262C160.763 58.9115 160.03 59.5382 159.542 59.9187C157.412 61.5806 156.462 61.9927 154.763 61.9927H153.827L153.137 61.5551C152.111 60.9041 149.189 58.6715 148.456 57.978C148.104 57.6449 147.572 57.2093 147.273 57.0102C146.975 56.811 146.41 56.4107 146.018 56.1206C145.626 55.8305 145.283 55.5931 145.257 55.5931C145.231 55.5931 145.02 55.4643 144.788 55.3068C144.556 55.1493 143.849 54.6809 143.218 54.2659C142.034 53.4884 140.906 52.4759 140.634 51.9467C140.382 51.4557 139.225 50.4739 138.628 50.2437C137.62 49.8552 135.343 50.0191 133.76 50.594C132.249 51.1428 129.339 52.7112 127.793 53.8102C127.261 54.1884 126.457 54.7108 126.008 54.9711C125.15 55.4673 124.204 56.1512 122.884 57.2292C122.45 57.5832 121.34 58.3801 120.417 59C119.493 59.6199 118.074 60.6821 117.263 61.3605C115.146 63.1312 114.971 63.2633 114.261 63.6263C113.909 63.8064 113.5 64.0395 113.352 64.1444C113.204 64.2492 112.787 64.47 112.425 64.6351C112.064 64.8002 111.336 65.1995 110.808 65.5225C107.393 67.6116 104.761 68.2445 101.805 67.6878L101.805 67.6884ZM106.944 63.7964C107.215 63.6519 107.265 63.5699 107.265 63.268C107.265 62.9339 107.176 62.7425 106.233 61.0356C106.123 60.8363 105.827 60.3636 105.576 59.9853C105.324 59.6069 104.954 58.9886 104.752 58.6113C104.55 58.234 104.093 57.4565 103.736 56.8835C103.061 55.7999 102.124 54.0389 101.994 53.6093C101.952 53.4729 101.688 52.8701 101.406 52.2699C100.855 51.0929 100.178 49.3284 99.9418 48.4499C99.8611 48.1498 99.7274 47.6587 99.6447 47.3585C99.562 47.0584 99.4417 46.5003 99.3773 46.1183C99.313 45.7363 99.1995 45.2005 99.1251 44.9277C98.992 44.4393 98.8696 43.458 98.6857 41.4054C98.6344 40.8324 98.5511 38.8849 98.5007 37.0776C98.3895 33.0854 98.4047 33.1476 97.4943 32.982C97.15 32.9193 96.535 32.841 96.1277 32.8078L95.3872 32.7476L94.6989 33.434C94.2862 33.8455 93.8762 34.3772 93.6751 34.7615C93.4907 35.1142 93.1581 35.6044 92.936 35.8509C92.714 36.0974 92.3328 36.628 92.0889 37.0301C91.845 37.4322 91.4791 37.9499 91.2759 38.1805C91.0336 38.4555 90.9054 38.6985 90.9037 38.8864C90.9023 39.044 90.7653 39.4855 90.5995 39.8675C90.1523 40.8974 90.1146 41.6777 90.4617 42.7213C90.6112 43.1708 90.7724 43.581 90.8199 43.6329C90.9623 43.7882 90.9176 45.0198 90.7526 45.4857C90.5598 46.0303 90.228 47.3402 90.1064 48.037C90.0154 48.5583 89.6754 49.3426 89.3206 49.8492C89.2212 49.9912 88.7668 50.3625 88.311 50.6743C87.8551 50.986 87.1994 51.4832 86.8538 51.7791C86.5083 52.0751 86.0457 52.4032 85.8258 52.5083C85.606 52.6133 85.3724 52.7644 85.3069 52.8439C85.2083 52.9635 85.2434 53.0111 85.5095 53.1186C85.6865 53.1901 86.3298 53.4859 86.939 53.7761C87.9518 54.2585 88.3562 54.5139 89.3184 55.2788C89.5018 55.4247 89.7235 55.5842 89.8111 55.6332C89.8986 55.6823 90.2978 55.9725 90.6983 56.2781C91.0987 56.5838 91.6087 56.9626 91.8315 57.1198C92.0544 57.2771 92.2589 57.437 92.286 57.4753C92.3131 57.5135 92.9383 57.9944 93.6754 58.5438C94.4126 59.0933 95.1003 59.6478 95.2038 59.7759C95.4554 60.0876 96.3794 60.861 96.8683 61.1692C97.3337 61.4626 99.2403 62.4494 99.8738 62.7248C100.505 62.9993 101.77 63.3914 102.633 63.5803C103.04 63.6692 103.527 63.7834 103.717 63.834C104.626 64.0765 106.46 64.0552 106.944 63.7964V63.7964ZM113.84 61.6235C114.725 61.1841 116.39 59.9128 117.316 58.9687C117.723 58.5542 118.399 57.7034 118.82 57.078C119.24 56.4526 119.708 55.807 119.86 55.6433C120.011 55.4796 120.398 54.9885 120.72 54.5519C121.555 53.4205 122.729 51.9714 123.372 51.2777C123.992 50.609 124.437 49.9717 124.897 49.0949C125.284 48.3566 125.378 48.2312 125.712 48.0129C125.965 47.8468 126.013 47.8468 126.746 48.0129C127.559 48.1969 128.202 48.2168 131.605 48.1631C133.509 48.1331 133.727 48.1493 135.399 48.4446C137.121 48.7489 138.727 49.0998 139.735 49.3924C141.136 49.7991 141.566 49.9398 142.009 50.136C142.995 50.5724 143.79 50.9872 144.337 51.3508C144.646 51.5561 144.934 51.7242 144.978 51.7242C145.022 51.7242 145.388 51.9749 145.793 52.2814C146.197 52.5879 146.663 52.912 146.827 53.0017C146.991 53.0914 147.385 53.3653 147.702 53.6103C149.131 54.7139 149.758 55.0946 150.772 55.476C151.233 55.6494 151.785 55.7444 153.728 55.9849C154.162 56.0386 154.849 56.1514 155.255 56.2357C156.754 56.5462 158.679 56.4236 160.955 55.8728C162.835 55.4177 163.787 54.9634 164.863 54.0076C165.026 53.8633 165.27 53.6693 165.405 53.5765C165.541 53.4837 166.02 53.157 166.471 52.8504C166.922 52.5438 167.719 51.8688 168.243 51.3504C169.322 50.2839 170.492 49.3415 171.308 48.8838C171.611 48.7132 172.041 48.4094 172.263 48.2089C172.484 48.0083 172.994 47.6762 173.396 47.471C173.798 47.2657 174.31 46.9807 174.533 46.8376C174.757 46.6946 175.112 46.5053 175.322 46.4171C175.785 46.2221 176.245 45.7961 176.245 45.5617C176.245 45.3279 175.166 44.5768 173.799 43.8601C173.186 43.5383 172.525 43.1668 172.332 43.0347C172.139 42.9026 171.926 42.7945 171.86 42.7945C171.794 42.7945 171.434 42.6267 171.061 42.4216C170.687 42.2165 169.983 41.851 169.495 41.6093C168.297 41.0157 167.684 40.5319 167.088 39.7105C166.813 39.3307 166.588 38.9938 166.588 38.9619C166.588 38.8533 165.962 38.0829 165.53 37.6599C165.138 37.2759 165.055 37.2382 164.598 37.2382C164.067 37.2382 162.269 37.7181 161.701 38.0115C161.515 38.1076 161.219 38.4048 161.044 38.6719C160.868 38.9391 160.567 39.239 160.375 39.3384C159.877 39.5956 158.936 39.6705 158.073 39.5217C157.494 39.4221 157.273 39.421 157.013 39.5165C156.46 39.7203 155.619 39.9094 155.249 39.9132C154.773 39.9184 154.451 39.5617 154.035 38.5678C153.497 37.2831 153.084 36.5215 152.671 36.0472C151.968 35.2403 151.605 35.1778 150.624 35.6944C148.031 37.0596 147.329 37.3582 144.514 38.2952C143.457 38.647 142.216 39.1179 141.755 39.3416C141.294 39.5653 140.651 39.8731 140.326 40.0255C139.757 40.2923 138.49 40.9792 137.851 41.3672C137.682 41.4699 137.261 41.7232 136.915 41.9301C136.205 42.3549 135.397 42.9179 135.103 43.193C134.666 43.6024 134.121 43.5891 133.132 43.145C132.433 42.8308 131.699 42.6258 130.078 42.2919C129.444 42.1614 126.006 42.1611 125.298 42.2916C125 42.3466 124.446 42.4602 124.066 42.5441C123.687 42.6281 123.133 42.7391 122.835 42.7909C122.536 42.8427 122.026 42.9314 121.701 42.988C120.129 43.2618 119.523 43.2957 118.831 43.1487C118.459 43.0694 117.979 42.9307 117.765 42.8403C117.197 42.6006 115.783 41.6315 115.153 41.0503C114.852 40.7733 114.34 40.3518 114.015 40.1136C113.69 39.8755 113.202 39.4712 112.931 39.2152C111.785 38.1325 110.011 36.7044 108.94 36.0018C108.533 35.7351 107.909 35.2801 107.552 34.9906C105.635 33.4353 104.236 32.7333 102.535 32.4724C102.236 32.4267 101.644 32.332 101.217 32.2621C100.448 32.1358 100.441 32.1366 100.25 32.3739C100.129 32.5244 100.08 32.6884 100.119 32.817C100.152 32.9293 100.203 33.6685 100.233 34.4598C100.276 35.5964 100.254 36.0226 100.13 36.4898C100.043 36.8151 99.9724 37.267 99.9724 37.4942C99.9724 37.7214 99.8798 38.1177 99.7669 38.3749C99.4877 39.0104 99.6093 39.2845 100.4 39.8014C100.734 40.0199 101.096 40.2814 101.204 40.3827C101.313 40.4839 101.689 40.7859 102.042 41.0537C103.025 41.8008 103.422 42.2366 103.418 42.5631C103.414 42.868 103.271 43.6724 102.892 45.5227C102.637 46.7645 102.596 46.918 102.385 47.4078C102 48.3055 102 48.4298 102.383 49.593C102.581 50.192 102.87 50.9276 103.024 51.2277C103.178 51.5279 103.392 52.0454 103.5 52.3777C103.619 52.747 104.04 53.4993 104.581 54.3125C105.069 55.0443 105.62 55.943 105.808 56.3097C105.995 56.6763 106.418 57.2791 106.747 57.6491C107.44 58.4291 107.757 58.8244 107.757 58.91C107.757 58.9434 107.868 59.1489 108.005 59.3665C108.141 59.5842 108.344 59.9963 108.456 60.2823C108.699 60.9053 108.925 61.1862 109.078 61.0582C109.138 61.0083 109.382 60.582 109.622 60.111C110.131 59.1099 111.063 58.0203 111.322 58.1233C111.528 58.205 111.673 58.6033 111.846 59.5621C112.047 60.6789 112.276 61.633 112.398 61.8616C112.542 62.1329 112.946 62.066 113.839 61.6232L113.84 61.6235ZM84.768 50.4226C85.7286 50.2838 86.9327 49.736 87.5965 49.1357C88.0685 48.7089 88.7384 47.7798 88.7384 47.5519C88.7384 47.4893 88.8004 47.2974 88.8762 47.1255C89.2692 46.234 89.6714 44.4344 89.5991 43.8911C89.5634 43.6235 89.4044 43.2943 89.1414 42.9436C88.6072 42.2312 88.6117 42.0983 89.2124 40.8101C89.3407 40.5351 89.3764 40.122 89.3842 38.8257C89.3896 37.9253 89.4404 36.943 89.497 36.6429C89.5536 36.3428 89.5853 35.795 89.5676 35.4257C89.5363 34.7757 89.5187 34.7348 89.0137 34.1453C87.9199 32.8684 87.8957 32.8516 87.2192 32.9C86.8895 32.9235 86.0654 33.0195 85.3879 33.1133C84.7104 33.207 83.6905 33.3218 83.1214 33.3684C82.1254 33.4499 81.5004 33.5599 80.0173 33.9149C78.297 34.3267 76.793 34.6189 75.9528 34.7047C75.6143 34.7392 75.1833 34.8323 74.9951 34.9115C74.4966 35.1212 74.2763 35.0911 73.856 34.7559C73.6494 34.5912 73.2218 34.3422 72.9056 34.2025C72.5895 34.0628 72.1843 33.8069 72.0052 33.6338C71.7019 33.3407 71.6237 33.3167 70.8699 33.285C70.4247 33.2663 69.7952 33.3053 69.4711 33.3718C69.147 33.4382 68.4827 33.5684 67.9949 33.6611L67.108 33.8297L67.1217 34.1367C67.1292 34.3056 67.2479 34.6833 67.3854 34.9761C67.523 35.2688 67.6658 35.6408 67.7028 35.8028C67.7398 35.9647 67.8761 36.4013 68.0057 36.7729C68.1353 37.1445 68.2413 37.6043 68.2413 37.7948C68.2413 37.9853 68.3056 38.2664 68.3843 38.4195C68.5211 38.6859 68.7062 38.8573 69.909 39.8315C70.8849 40.622 73.0794 43.0897 73.9063 44.3264C74.8686 45.7658 75.7618 46.7435 77.0768 47.7968C78.1385 48.6472 78.8098 49.0275 80.1651 49.5462C80.6258 49.7225 81.0914 49.9043 81.1998 49.9501C81.7778 50.1943 82.0498 50.2745 82.678 50.3861C83.5951 50.5489 83.8615 50.5536 84.768 50.4226H84.768ZM62.7391 47.4081C62.6829 46.7326 62.6736 42.83 62.7241 41.1077C62.7701 39.5387 62.6657 37.896 62.4183 36.2956C62.2336 35.1008 61.847 33.5357 61.6999 33.3876C61.6014 33.2885 61.1481 33.2188 60.1947 33.156C58.3571 33.0352 55.9394 32.4826 54.7901 31.9208C54.4068 31.7335 54.2043 31.5388 53.8785 31.0448C53.6482 30.6954 53.4597 30.3846 53.4597 30.354C53.4597 30.3234 53.3519 30.0627 53.2201 29.7747C52.7865 28.8272 52.3875 27.7691 52.3206 27.3897C52.2844 27.1844 52.2155 26.992 52.1675 26.9621C52.1194 26.9322 52.0801 26.8442 52.0801 26.7665C52.0801 26.6888 51.8869 26.2115 51.6507 25.7058C51.4145 25.2 51.1474 24.621 51.057 24.419C50.9667 24.217 50.7729 23.9081 50.6263 23.7327C50.3367 23.3862 49.3104 22.8645 48.6803 22.7434C47.923 22.5979 47.294 22.4039 47.101 22.2562C46.9941 22.1743 46.7055 21.7948 46.4598 21.4128C45.8442 20.456 45.6209 19.8902 45.3828 18.6843C45.2952 18.2405 44.7342 17.1071 44.4989 16.8984C44.4681 16.8711 44.3577 16.6801 44.2535 16.474C43.9961 15.9645 42.5301 14.5609 42.1865 14.4948C41.756 14.4119 41.7744 14.6477 42.2439 15.2286C42.9545 16.1076 43.6306 17.355 43.6791 17.8762C43.7402 18.5326 43.4239 23.1734 43.2922 23.5539C43.168 23.9127 43.2385 26.2881 43.4021 27.2556C43.5188 27.9455 43.6495 28.1126 44.3282 28.4386C44.9223 28.7239 45.1694 28.9725 45.516 29.6335C45.7474 30.0748 45.7683 30.2158 45.7662 31.3202C45.7635 32.7509 46.0985 35.0827 46.3865 35.637C46.5146 35.8836 46.5517 35.9027 47.7753 36.3477C48.4697 36.6002 49.5395 37.2309 49.6903 37.4766C49.7497 37.5734 50.0983 39.0845 50.3563 40.3636C50.4334 40.7456 50.6037 41.39 50.7349 41.7956L50.9734 42.533L52.0934 43.0972C52.7094 43.4075 53.4129 43.7403 53.6568 43.8367C53.9007 43.9331 54.24 44.0729 54.4108 44.1474C54.5816 44.2218 54.7744 44.2827 54.8393 44.2827C54.9704 44.2827 56.3637 44.9792 57.2044 45.465C57.5025 45.6372 57.8572 45.8314 57.9927 45.8966C58.1282 45.9617 58.2613 46.0383 58.2884 46.0667C58.3988 46.1823 59.4123 46.7135 59.8158 46.8672C59.9784 46.9292 60.5549 47.1732 61.0969 47.4095C61.7237 47.6829 62.2078 47.833 62.4272 47.8221C62.767 47.8052 62.7716 47.7992 62.7391 47.4081H62.7391ZM133.321 41.7421C133.407 41.7089 133.477 41.6121 133.477 41.5269C133.477 41.3239 131.474 38.3032 130.977 37.7582C130.414 37.1391 129.473 36.4979 128.068 35.7755C126.686 35.065 126.497 34.956 125.298 34.1779C123.796 33.2035 121.448 30.9461 120.322 29.394C120.213 29.2446 119.748 28.6532 119.287 28.0796C118.826 27.5061 118.125 26.5865 117.729 26.036C117.032 25.0677 116.74 24.8318 116.4 24.9631C116.201 25.04 116.02 26.8823 116.054 28.4768C116.073 29.3562 116.046 29.924 115.982 29.9884C115.912 30.0597 115.748 29.9155 115.451 29.5225C114.767 28.6158 114.335 28.3085 113.747 28.3085C112.907 28.3085 112.03 28.8157 110.786 30.0218C110.048 30.7374 109.695 31.1538 109.628 31.3903C109.486 31.8905 109.508 33.4192 109.664 33.7939C109.862 34.2724 111.916 36.1427 113.227 37.0377C113.498 37.2228 113.992 37.6375 114.325 37.9592C115.259 38.8599 116.434 39.7322 116.669 39.6984C116.848 39.6726 116.875 39.5914 116.896 39.0242C116.909 38.6694 116.968 37.9337 117.028 37.3892C117.087 36.8446 117.174 35.907 117.222 35.3056C117.27 34.7041 117.357 34.0419 117.417 33.834L117.526 33.4559L117.847 33.8836C118.233 34.3985 118.728 35.4345 118.881 36.0476C119.005 36.5474 119.126 37.2365 119.333 38.6273C119.411 39.1457 119.523 39.7373 119.582 39.9419C119.683 40.2876 119.717 40.314 120.065 40.314C120.271 40.314 120.569 40.2704 120.726 40.2172C120.883 40.164 121.419 40.0805 121.918 40.0319C122.633 39.9621 122.934 39.9748 123.347 40.0921C124.008 40.2802 125.439 40.4632 127.762 40.6564C128.764 40.7399 129.895 40.88 130.275 40.9678C130.654 41.0556 131.142 41.1632 131.359 41.2068C131.575 41.2505 132.041 41.399 132.393 41.537C133.129 41.825 133.115 41.8219 133.321 41.7421ZM182.658 41.2152C183.472 40.941 183.946 40.6741 184.95 39.9253C185.447 39.5544 186.034 39.1585 186.254 39.0456C187.152 38.5856 187.079 38.2475 186.04 38.0577C185.666 37.9895 185.006 37.8686 184.572 37.7893C183.677 37.6255 182.945 37.4368 182.1 37.1519C181.78 37.0438 181.289 36.9088 181.009 36.8517C180.729 36.7947 180.219 36.6512 179.876 36.5327C179.243 36.3147 177.715 35.5846 177.625 35.4571C177.598 35.419 177.42 35.3018 177.231 35.1968C176.715 34.9114 175.841 34.2395 174.516 33.1094C173.621 32.3464 173.223 31.9298 172.903 31.4182C172.669 31.0449 172.394 30.6184 172.292 30.4706C172.19 30.3227 172.106 30.1792 172.106 30.1516C172.106 30.124 171.899 29.7539 171.644 29.329C171.086 28.396 170.304 27.3106 169.515 26.3738C169.193 25.9918 168.724 25.4339 168.473 25.1341C168.222 24.8343 167.812 24.3776 167.561 24.1192C166.942 23.4801 166.423 23.3474 164.321 23.2912C162.619 23.2458 161.089 23.1059 160.441 22.9367C160.072 22.8405 159.815 22.7905 158.212 22.504C157.805 22.4314 157.051 22.2839 156.537 22.1763C156.022 22.0687 155.135 21.907 154.566 21.8171C153.53 21.6533 152.158 21.4107 151.511 21.2766C151.021 21.1752 150.884 21.2279 150.698 21.5897C150.222 22.5183 149.646 24.3014 149.641 24.8627C149.64 25.0138 149.745 25.3076 149.876 25.5156C150.121 25.9076 151.277 27.0187 151.439 27.0187C151.561 27.0187 152.28 27.5888 152.606 27.9437C153.237 28.63 153.554 30.1089 153.439 31.8314C153.356 33.0859 153.421 33.2474 154.291 33.9345C155.131 34.5972 155.432 34.7599 156.688 35.2291C158.111 35.7604 158.88 35.8925 160.047 35.8063C161.896 35.6696 164.755 35.648 165.492 35.7651C166.063 35.8556 166.318 35.9547 166.675 36.2242C167.339 36.7259 167.729 37.1089 168.311 37.8335C169.515 39.3322 170.527 40.2321 171.275 40.469C171.878 40.6601 172.775 40.6309 174.521 40.3632C177.186 39.9545 177.757 39.9028 178.21 40.0293C178.559 40.1271 179.959 40.8229 180.778 41.3065C181.036 41.4585 182.088 41.4074 182.658 41.2152V41.2152ZM32.0264 39.1139C33.2967 38.7928 34.1931 38.4117 34.3434 38.129C34.4301 37.9659 34.3911 37.8498 34.1245 37.4761C33.833 37.0675 33.3283 36.2299 33.0545 35.7003C32.998 35.5912 32.8684 35.3456 32.7664 35.1546C32.6644 34.9636 32.5082 34.4725 32.4193 34.0632C32.0666 32.4392 31.8501 31.5106 31.7139 31.037C31.6354 30.7642 31.5241 30.3787 31.4665 30.1804C31.3356 29.7293 31.4137 29.442 31.5708 29.7968C32.0053 30.7783 33.3843 33.1398 33.7725 33.5671C33.8964 33.7035 34.1257 33.9714 34.282 34.1624C34.4384 34.3534 34.9595 34.9378 35.4401 35.4611C36.2032 36.2919 36.4217 36.4655 37.1652 36.8315C38.0984 37.2907 39.4583 37.631 40.3709 37.6335C41.1861 37.6357 42.4195 37.8252 42.817 38.0091C43.0067 38.0969 43.4436 38.3389 43.7879 38.5468C44.3699 38.8984 44.7896 39.026 44.7866 38.8505C44.7861 38.8096 44.5531 38.4839 44.2693 38.1267C43.6008 37.2856 42.8714 35.8108 42.6276 34.8074C42.3225 33.5515 42.1272 32.4132 42.1272 31.8912C42.1272 31.6265 42.0555 30.7679 41.9679 29.9832C41.8391 28.8292 41.8211 28.0068 41.8737 25.6792C41.9095 24.0967 41.9379 22.7572 41.9369 22.7027C41.9357 22.6481 41.9055 21.991 41.8694 21.2425C41.7892 19.5767 41.7351 19.4685 40.6204 18.7445C40.1709 18.4526 39.5904 17.9754 39.3304 17.6843C38.8626 17.1604 38.8583 17.1495 38.9219 16.6373C38.9761 16.2003 38.9315 15.9571 38.635 15.0744C38.4419 14.4994 38.284 13.8809 38.284 13.6998C38.284 13.0437 38.0198 12.85 36.2114 12.1804C34.7164 11.6268 33.3564 11.3549 33.0115 11.5408C32.5367 11.7966 32.2507 12.1957 31.7772 13.2632C31.5148 13.8548 31.2814 14.3577 31.2586 14.3807C31.2357 14.4037 31.1498 14.3966 31.0676 14.3648C30.9473 14.3184 30.909 14.0413 30.8718 12.9486C30.8173 11.3509 30.6928 10.9482 30.1909 10.7468C30.0081 10.6734 29.4624 10.4207 28.9783 10.1851C28.4942 9.9495 27.8343 9.70861 27.512 9.64976C26.6598 9.49418 26.4271 9.61867 26.0494 10.432C25.7567 11.0624 25.7509 11.1022 25.8538 11.7823C25.9121 12.1677 26.0308 13.1361 26.1175 13.9342C26.2854 15.4796 26.2278 16.6378 25.9182 17.9401C25.7275 18.7423 25.5252 20.6333 25.5237 21.627L25.5226 22.4365L26.1139 22.9593C26.9957 23.739 28.3069 25.1288 28.3624 25.3427C28.3893 25.4459 28.3983 25.5304 28.3826 25.5304C28.3668 25.5304 28.0051 25.3548 27.5788 25.1403C26.5024 24.5985 25.7945 24.4905 24.2179 24.6271C22.8141 24.7488 22.4719 24.8458 21.1639 25.4936C20.542 25.8016 20.0588 26.1317 19.6365 26.537L19.0187 27.1298L19.3636 27.4163C19.5533 27.5738 20.152 28.0711 20.694 28.5213C22.0915 29.6822 22.4185 30.0021 22.4185 30.2082C22.4185 30.3809 22.3937 30.38 21.8816 30.1871C21.5863 30.0758 21.0452 29.8248 20.6792 29.6292C19.7713 29.1441 18.7346 28.7876 18.0766 28.7342C17.558 28.6921 17.5023 28.7106 17.0347 29.0828C16.3656 29.6154 15.6189 30.5127 15.6189 30.7844C15.6189 31.1954 16.0164 31.5738 17.8664 32.924C18.8796 33.6635 19.987 34.488 20.3274 34.7563C20.6678 35.0246 21.333 35.478 21.8056 35.7637C22.2782 36.0495 22.8957 36.4535 23.178 36.6615C23.4602 36.8695 23.7126 37.0398 23.7388 37.0398C23.765 37.0398 24.1549 37.2134 24.6052 37.4256C25.0556 37.6378 25.7788 37.9544 26.2124 38.1292C26.646 38.304 27.2225 38.5391 27.4935 38.6517C27.7645 38.7643 28.1857 38.924 28.4296 39.0066C29.2357 39.2796 31.1459 39.3366 32.0265 39.1139L32.0264 39.1139ZM140.705 38.1282C141.105 38.0701 141.672 37.8888 142.095 37.6837C142.489 37.4933 142.844 37.3374 142.884 37.3374C142.925 37.3374 143.142 37.2129 143.367 37.0607C143.875 36.7164 146.205 35.5206 146.903 35.2463C147.188 35.1342 147.651 34.9337 147.932 34.8009C148.214 34.668 148.489 34.5593 148.545 34.5593C148.601 34.5593 148.792 34.4952 148.97 34.4167C150.68 33.6629 150.928 33.4778 151.26 32.7028C151.688 31.7035 151.272 30.8247 149.177 28.2987C148.44 27.41 148.062 26.8586 148.062 26.6729C148.062 26.5966 148.017 26.5067 147.963 26.473C147.817 26.3818 147.844 25.7165 148.02 25.064C148.411 23.6202 148.642 22.6274 148.704 22.1261C148.811 21.2682 148.709 21.2103 146.969 21.1347C144.842 21.0423 143.711 21.1878 142.431 21.7185C142.086 21.8615 141.627 22.0479 141.41 22.1326C140.901 22.3315 139.928 22.8062 139.488 23.0706C139.187 23.2515 138.06 23.7018 137.32 23.9365C137.185 23.9795 136.852 24.106 136.581 24.2177C136.31 24.3294 135.756 24.5557 135.35 24.7204C134.303 25.1444 133.724 25.4913 133.598 25.7684C133.402 26.2031 133.731 27.0939 134.391 27.9132C134.542 28.101 135.306 28.7054 135.392 28.7054C135.427 28.7054 135.59 28.8049 135.753 28.9266C135.917 29.0482 136.236 29.2167 136.464 29.301C137.402 29.6491 136.877 30.3628 135.263 30.934C134.546 31.1879 133.59 31.0975 132.64 30.6859C132.007 30.4118 128.965 29.4051 127.072 28.8431C126.611 28.7064 125.458 28.2894 124.51 27.9166C122.232 27.0214 122.131 26.9912 121.814 27.1125C121.671 27.1673 121.553 27.2749 121.553 27.3515C121.553 27.6353 124.227 30.5297 125.101 31.192C125.345 31.3768 125.567 31.5515 125.594 31.5802C125.621 31.6089 125.865 31.8101 126.136 32.0272C126.407 32.2444 126.761 32.5494 126.924 32.7049C127.087 32.8604 127.397 33.1065 127.614 33.2517C127.831 33.3969 128.03 33.5417 128.057 33.5734C128.084 33.6053 128.484 33.8354 128.944 34.0849C129.405 34.3344 130.106 34.7196 130.501 34.941C131.39 35.4383 132.303 35.8063 132.883 35.9011C133.125 35.9407 133.48 36.069 133.671 36.1863C133.863 36.3035 134.263 36.4736 134.561 36.5642C136.066 37.0215 137.09 37.3701 137.55 37.5812C138.931 38.215 139.469 38.3082 140.705 38.1282H140.705ZM90.9854 36.4834C91.0017 36.3256 91.0844 36.0402 91.169 35.8492C91.7626 34.5096 91.9774 34.1691 92.6987 33.4245C93.4997 32.5975 93.6211 32.4219 93.4605 32.3219C93.3148 32.2313 91.3728 32.264 91.2787 32.3587C91.2341 32.4036 91.1301 32.7273 91.0474 33.0781C90.9647 33.4289 90.8549 33.8945 90.8034 34.1128C90.639 34.8095 90.5137 35.7822 90.5129 36.3668C90.5124 36.9134 90.5203 36.9311 90.7339 36.8522C90.8814 36.7977 90.9656 36.6743 90.9854 36.4833V36.4834ZM187.676 35.6426C187.676 35.4659 187.169 34.7266 186.831 34.4105C186.773 34.3559 186.575 34.1103 186.393 33.8648C186.21 33.6192 185.747 33.0834 185.365 32.6742C184.529 31.7778 184.095 31.2402 183.541 30.4146C183.022 29.6416 182.552 29.3141 181.419 28.9344C180.931 28.7711 180.094 28.4915 179.559 28.3131C177.802 27.7273 176.322 26.6427 174.678 24.7367C173.784 23.7004 173.241 22.8188 172.814 21.7105C172.709 21.4376 172.507 20.9242 172.364 20.5695C172.222 20.2148 172.106 19.8945 172.106 19.8577C172.106 19.821 171.736 19.0141 171.282 18.0646C170.829 17.1151 170.405 16.1776 170.341 15.9813C170.116 15.2947 169.691 14.8415 168.879 14.4243C168.459 14.2082 167.775 13.7946 167.359 13.5053C166.439 12.866 164.3 10.8638 163.942 10.3072C163.678 9.89539 163.545 9.75884 163.406 9.75614C163.312 9.75404 163.428 11.2279 163.539 11.4454C163.582 11.5295 163.727 12.0206 163.863 12.5368C163.998 13.053 164.269 14 164.464 14.6413C164.8 15.7459 164.811 15.8229 164.666 16.1048C164.565 16.301 164.439 16.4018 164.294 16.401C163.912 16.3989 162.828 16.0123 161.78 15.5044C161.222 15.2343 160.748 15.0132 160.725 15.0132C160.59 15.0132 159.755 14.3545 159.403 13.9695C158.798 13.309 158.611 12.828 158.608 11.9325C158.607 11.5205 158.644 11.141 158.69 11.0891C158.834 10.928 159.091 10.0083 159.162 9.39631C159.211 8.97019 159.335 8.63989 159.616 8.176C160.039 7.48065 160.246 7.26885 160.786 6.97847C161.489 6.60125 161.324 6.27985 160.107 5.65549C159.542 5.36591 159.282 5.28978 158.854 5.28978C158.216 5.28978 158.068 5.44618 157.965 6.23236C157.929 6.50521 157.859 6.86528 157.808 7.03253C157.757 7.19977 157.678 7.62395 157.631 7.97512C157.289 10.5397 156.821 12.2874 156.289 12.9901C155.758 13.6912 154.573 14.7011 152.336 16.3602C151.692 16.8373 151.129 17.2604 151.083 17.3004C150.898 17.4623 151.238 17.7752 151.827 17.986C152.168 18.1079 152.536 18.2477 152.644 18.2968C153.25 18.571 154.847 19.1145 156.241 19.521C157.661 19.9351 158.13 20.0519 159.049 20.2195C159.537 20.3084 160.114 20.4288 160.33 20.487C160.547 20.5452 160.946 20.6308 161.217 20.6772C162.07 20.823 163.163 21.0443 163.878 21.2158C164.257 21.3067 164.723 21.4172 164.913 21.4612C165.102 21.5052 165.605 21.6342 166.029 21.7477C166.726 21.9344 167.156 22.0069 168.969 22.244C169.276 22.2841 169.605 22.3814 169.699 22.4602C169.913 22.639 170.779 23.9894 171.199 24.7997C172.211 26.7524 172.503 27.288 172.986 28.0783C173.771 29.364 174.141 29.8666 175.016 30.8341C176.066 31.9963 176.925 32.7013 177.821 33.1353C178.228 33.3328 178.638 33.533 178.732 33.5803C178.826 33.6277 178.993 33.6663 179.103 33.6663C179.302 33.6663 180.97 34.2059 181.29 34.3737C181.382 34.4219 181.715 34.504 182.03 34.5562C182.997 34.7164 183.814 34.9029 183.891 34.981C183.931 35.0219 184.092 35.0554 184.247 35.0554C184.402 35.0554 184.689 35.1224 184.883 35.2043C185.078 35.2862 185.323 35.3531 185.428 35.3531C185.602 35.3531 186.253 35.5275 186.888 35.7441C187.024 35.7903 187.256 35.8328 187.405 35.8386C187.618 35.847 187.676 35.8043 187.676 35.6426L187.676 35.6426ZM107.378 32.5501C107.546 32.4129 107.931 31.8714 108.136 31.4849C108.209 31.3477 108.553 30.6756 108.902 29.9913C109.549 28.7186 110.141 27.9607 110.96 27.3541C111.54 26.9246 111.775 26.8396 112.521 26.7885C112.892 26.7631 113.239 26.6984 113.293 26.6444C113.357 26.58 113.324 26.3983 113.198 26.1129C113.093 25.8744 112.975 25.5483 112.938 25.3882C112.855 25.0372 112.277 24.4438 110.96 23.3583C110.418 22.9114 109.783 22.3859 109.55 22.1905C108.986 21.7191 108.388 20.9091 108.202 20.3649C108.119 20.1227 108.01 19.8352 107.96 19.7261C107.809 19.3971 107.67 18.3125 107.605 16.948C107.538 15.5345 107.364 14.6389 107.078 14.234C106.977 14.0896 106.799 13.7705 106.683 13.5249C106.567 13.2794 106.314 12.8999 106.12 12.6816C105.927 12.4633 105.489 11.9722 105.148 11.5902C104.807 11.2082 104.041 10.3375 103.446 9.65541C102.511 8.58355 101.396 7.45615 100.944 7.12533C100.815 7.03125 99.8344 6.15347 97.8537 4.35967C97.3659 3.91793 96.801 3.38705 96.5984 3.17993C96.1501 2.72172 95.7242 2.66469 95.2708 3.00218C94.8809 3.2924 94.9326 3.44685 95.6049 3.99994C96.4655 4.70801 96.6844 4.96945 97.0517 5.72801C97.5134 6.68126 97.7735 7.49634 97.846 8.21673C97.8789 8.54416 97.9659 9.20415 98.0393 9.68336C98.1435 10.3636 98.1546 11.1251 98.0903 13.156C97.9399 17.8984 97.8237 19.9016 97.6633 20.5159C97.4455 21.3497 97.4681 21.8606 97.7477 22.4217C98.0539 23.036 98.5305 24.4815 98.7408 25.4332C98.831 25.8414 98.9676 26.4238 99.0444 26.7275C99.1213 27.0313 99.1841 27.3962 99.1841 27.5385C99.1841 27.9926 100.246 28.8528 101.598 29.4936C103.246 30.2743 103.538 30.4432 104.224 31.0091C104.623 31.3377 105.126 31.7195 105.343 31.8575C105.56 31.9956 105.759 32.1409 105.787 32.1805C105.814 32.22 106.013 32.3473 106.229 32.4633C106.669 32.6999 107.151 32.7363 107.378 32.5501H107.378ZM61.1882 30.6577C61.3695 30.5243 61.5495 30.109 61.7794 29.2938C61.9271 28.7701 61.9097 26.4545 61.7503 25.4312C61.2793 22.4061 60.7386 21.4196 58.4854 19.4743C57.0777 18.2589 55.378 16.6014 54.5723 15.6581C53.9824 14.9676 53.1717 13.7867 52.9033 13.2273C52.8641 13.1454 52.671 12.8106 52.4742 12.4831C52.2774 12.1557 51.8989 11.4413 51.6332 10.8956C51.043 9.68367 50.352 8.66322 50.1213 8.66322C49.8415 8.66322 49.715 8.87601 49.715 9.34671C49.715 9.77836 49.7097 9.78613 49.5419 9.59971C49.2696 9.29729 48.927 8.43204 48.7782 7.67104C48.6975 7.25811 48.0186 5.82973 47.7528 5.51349C47.5288 5.24708 47.1625 5.18198 47.0523 5.389C46.8926 5.68906 46.7364 6.65718 46.7868 7.03474C46.9838 8.50951 47.0889 9.07092 47.2494 9.50659C47.35 9.77943 47.4583 10.3922 47.49 10.8683C47.5225 11.3538 47.6222 11.8984 47.7172 12.1085C47.8831 12.4755 48.3727 13.2629 48.5771 13.4916C48.6339 13.5551 48.7912 13.7558 48.9267 13.9376C49.0622 14.1194 49.4391 14.5623 49.7643 14.9217C51.9574 17.3459 52.3572 17.8738 52.9895 19.1804C53.4924 20.2196 53.5209 20.311 53.6554 21.3136C53.795 22.3547 54.0932 23.3394 54.752 24.9351C55.0787 25.7264 55.3862 26.4631 55.4353 26.5722C55.569 26.8692 55.7949 27.6205 55.8608 27.9876C55.9416 28.4375 56.398 29.3813 56.6996 29.7221C57.1347 30.2138 57.7605 30.4177 59.5202 30.6415C60.8401 30.8093 60.9805 30.8106 61.1882 30.6577ZM97.2291 30.6302C97.2753 30.6015 97.3901 30.4357 97.4841 30.2618C97.6196 30.0113 97.6519 29.7266 97.6392 28.8912C97.6309 28.3113 97.5731 27.6639 97.5117 27.4526C97.4503 27.2412 97.3605 26.8227 97.3122 26.5226C97.2638 26.2224 97.1521 25.6643 97.0639 25.2823C96.9757 24.9003 96.8627 24.3869 96.8127 24.1413C96.7627 23.8958 96.6816 23.6055 96.6326 23.4964C96.5835 23.3873 96.4702 23.0068 96.3807 22.6509C96.2112 21.9766 96.2274 21.5599 96.5215 19.0316C96.5786 18.5404 96.5967 18.0046 96.5617 17.8409C96.4617 17.3734 95.1027 15.2172 94.545 14.6411C93.9749 14.0523 93.792 14.014 92.7294 14.2601C92.4042 14.3355 91.6947 14.4246 91.1527 14.4582C89.7582 14.5446 88.3934 14.7064 87.7037 14.8672C87.3785 14.943 86.7067 15.0572 86.2109 15.121C85.7151 15.1849 85.2663 15.2648 85.2136 15.2988C85.1609 15.3327 84.9362 15.6601 84.7143 16.0262C84.4924 16.3924 84.1763 16.879 84.0118 17.1077C83.7414 17.4835 83.7127 17.5955 83.7127 18.2744V19.0253L84.2266 19.5493C84.5093 19.8375 84.7777 20.0734 84.8231 20.0734C84.8684 20.0734 85.269 20.3127 85.7133 20.6054C86.7038 21.2576 87.1748 21.5269 88.6891 22.3065C90.0057 22.9843 90.3151 23.1662 90.3151 23.2623C90.3151 23.4342 89.1458 23.542 86.669 23.5985C84.4503 23.6491 83.7893 23.6321 83.0228 23.5044C81.6655 23.2782 80.4555 23.2957 79.9633 23.5485C79.2037 23.9387 78.3886 24.9208 77.8242 26.1258C77.1684 27.5261 76.9488 28.2997 77.0545 28.8373C77.1693 29.4216 77.3657 29.4805 79.7652 29.6499C80.9634 29.7345 82.0646 29.8503 82.2123 29.9072C82.36 29.9641 83.1119 30.0488 83.8833 30.0953C84.6546 30.1418 85.3267 30.2053 85.3768 30.2365C85.5373 30.3363 87.9639 30.523 89.034 30.5178C89.6031 30.5146 90.6531 30.4804 91.3673 30.4409C92.3504 30.3866 92.9489 30.4083 93.8309 30.5304C95.5261 30.7649 96.9457 30.8067 97.2291 30.6303V30.6302ZM49.2223 17.6334C49.2223 17.5466 49.1308 17.3568 49.0189 17.2117C48.907 17.0667 48.5895 16.6578 48.3132 16.3031C47.6851 15.4964 47.1529 14.6669 47.1529 14.4944C47.1529 14.422 47.0881 14.2697 47.009 14.156C46.9298 14.0422 46.7775 13.7253 46.6704 13.4517C46.5633 13.1782 46.387 12.7591 46.2786 12.5203C45.7033 11.2533 45.732 11.4266 45.7211 9.15932C45.7057 5.9472 45.6987 5.83767 45.4933 5.58227C45.3164 5.36224 45.2927 5.3596 44.5325 5.47491C43.4474 5.63951 42.7302 5.80938 40.649 6.3947C38.999 6.85877 38.3348 7.15691 37.147 7.9666C36.4815 8.42024 35.733 8.82867 35.14 9.06165C34.1539 9.44913 33.4553 9.81808 33.4553 9.95146C33.4553 10.1303 33.9496 10.3319 34.6401 10.4347C35.0453 10.4951 35.5543 10.5886 35.7711 10.6427C35.9879 10.6968 36.4092 10.7908 36.7073 10.8518C37.0054 10.9128 37.5597 11.0544 37.9391 11.1664C38.9398 11.4618 39.3138 11.4856 39.9219 11.2931C40.2982 11.1739 40.6004 11.1427 40.9244 11.1894C41.9367 11.3356 42.1468 11.4473 43.0165 12.3027C43.8796 13.1515 43.9413 13.2427 44.5222 14.5257C44.7773 15.0889 44.9796 15.3745 45.326 15.6603C45.5806 15.8704 45.863 16.1946 45.9536 16.3807C46.1455 16.7753 46.3759 16.9132 47.2515 17.1576C47.6037 17.256 48.1359 17.4349 48.434 17.5551C49.0986 17.8233 49.2223 17.8356 49.2223 17.6335V17.6334ZM87.4065 10.1098C87.6767 9.88719 87.9823 9.63805 88.0857 9.55619C88.1892 9.47429 88.4903 9.21795 88.7549 8.98646C89.4222 8.40257 89.8471 8.207 90.7466 8.06973C91.6942 7.92511 92.113 7.9916 92.647 8.3714C93.1551 8.73281 93.2847 8.73574 93.4885 8.39042C93.7355 7.97192 94.9559 6.7781 95.1366 6.7781C95.3486 6.7781 95.7357 6.50049 95.7325 6.3508C95.729 6.18927 94.4534 5.09512 94.0885 4.94062C93.8306 4.83143 93.6881 4.85023 92.9404 5.09235C91.4803 5.56512 89.4779 6.69017 88.9343 7.34324C88.8523 7.44173 88.5653 7.81246 88.2965 8.16717C88.0277 8.52187 87.6291 9.04323 87.4108 9.32572C86.897 9.99062 86.575 10.5199 86.6427 10.5881C86.7136 10.6595 86.8216 10.5923 87.4065 10.1099V10.1098Z" fill="#846D00" stroke="#846D00" stroke-width="0.185357" stroke-linecap="round" stroke-linejoin="round"/>
</svg>
